<svg class="animated" id="freepik_stories-healthy-lifestyle" xmlns="http://www.w3.org/2000/svg" viewBox="0 0 500 500" version="1.1" xmlns:xlink="http://www.w3.org/1999/xlink" xmlns:svgjs="http://svgjs.com/svgjs"><style>svg#freepik_stories-healthy-lifestyle:not(.animated) .animable {opacity: 0;}svg#freepik_stories-healthy-lifestyle.animated #freepik--Tomato--inject-31 {animation: 6s Infinite  linear shake;animation-delay: 0s;}svg#freepik_stories-healthy-lifestyle.animated #freepik--heart-rate--inject-31 {animation: 6s Infinite  linear shake;animation-delay: 0s;}svg#freepik_stories-healthy-lifestyle.animated #freepik--Banana--inject-31 {animation: 6s Infinite  linear shake;animation-delay: 0s;}svg#freepik_stories-healthy-lifestyle.animated #freepik--Dumbbell--inject-31 {animation: 6s Infinite  linear shake;animation-delay: 0s;}svg#freepik_stories-healthy-lifestyle.animated #freepik--Drink--inject-31 {animation: 6s Infinite  linear shake;animation-delay: 0s;}svg#freepik_stories-healthy-lifestyle.animated #freepik--Device--inject-31 {animation: 6s Infinite  linear shake;animation-delay: 0s;}svg#freepik_stories-healthy-lifestyle.animated #freepik--character-2--inject-31 {animation: 1s 1 forwards cubic-bezier(.36,-0.01,.5,1.38) fadeIn,6s Infinite  linear heartbeat;animation-delay: 0s,1s;}svg#freepik_stories-healthy-lifestyle.animated #freepik--character-1--inject-31 {animation: 1s 1 forwards cubic-bezier(.36,-0.01,.5,1.38) fadeIn,6s Infinite  linear heartbeat;animation-delay: 0s,1s;}            @keyframes shake {                10%, 90% {                    transform: translate3d(-1px, 0, 0);                  }                  20%, 80% {                    transform: translate3d(2px, 0, 0);                  }                  30%, 50%, 70% {                    transform: translate3d(-4px, 0, 0);                  }                  40%, 60% {                    transform: translate3d(4px, 0, 0);                  }            }                    @keyframes fadeIn {                0% {                    opacity: 0;                }                100% {                    opacity: 1;                }            }                    @keyframes heartbeat {                0% {                    transform: scale(1);                }                10% {                    transform: scale(1.1);                }                30% {                    transform: scale(1);                }                40% {                    transform: scale(1);                }                50% {                    transform: scale(1.1);                }                60% {                    transform: scale(1);                }                100% {                    transform: scale(1);                }            }        </style><g id="freepik--Shadow--inject-31" class="animable" style="transform-origin: 245.18px 412.39px;"><ellipse id="freepik--path--inject-31" cx="245.18" cy="412.39" rx="193.89" ry="11.32" style="fill: rgb(245, 245, 245); transform-origin: 245.18px 412.39px;" class="animable"></ellipse></g><g id="freepik--Tomato--inject-31" class="animable animator-active" style="transform-origin: 105.2px 277.934px;"><ellipse cx="105.2" cy="282.26" rx="18.15" ry="15.35" style="fill: rgb(22, 163, 74); transform-origin: 105.2px 282.26px;" id="el3s9wf2yvcxg" class="animable"></ellipse><path d="M103.8,267.93s2.79-10.65,5.41-9.6-2.62,3.66-2.7,9.6c0,0,5.84-5.24,9.68-2.1,0,0-5.58-.17-7.85,3.49,0,0,5.06,3.14,9.59,2.44,0,0-2.79,2.82-11.16.11,0,0,2.09,7.75-3,6.52a3.67,3.67,0,0,0,0-5.58s-10.64,5.58-11.34-1.05a9,9,0,0,0,9.42-1.57s-3.31-5.75-7.68-5.41C94.2,264.78,98.57,261.12,103.8,267.93Z" style="fill: rgb(38, 50, 56); transform-origin: 105.18px 268.39px;" id="elorbz5uzbu6m" class="animable"></path><g id="el63ios13d8nw"><path d="M122.67,277.65c.73,6.26-2.33,15.82-16.46,15.82-13.36,0-17.12-3.75-17.51-4.18,2.86,5.46,9.16,8.32,16.5,8.32,10,0,18.14-5.33,18.14-15.35A15.7,15.7,0,0,0,122.67,277.65Z" style="opacity: 0.2; transform-origin: 106.02px 287.63px;" class="animable"></path></g><g id="elp8a5hqwg8s8"><path d="M97.31,289.28s-9.29-3.73-6.8-9.77S92.92,285.25,97.31,289.28Z" style="fill: rgb(255, 255, 255); opacity: 0.2; transform-origin: 93.698px 283.55px;" class="animable"></path></g></g><g id="freepik--heart-rate--inject-31" class="animable" style="transform-origin: 98.715px 179.775px;"><path d="M105.51,181.09l-1.63-3-5.41,12.31-5-15.35-2.07,6h-9c.37.43.77.85,1.19,1.27l15.13,15.06,15.12-15.06c.43-.42.83-.84,1.19-1.27Z" style="fill: rgb(22, 163, 74); transform-origin: 98.715px 186.215px;" id="elfdpg5sgp3tt" class="animable"></path><path d="M89.75,178.82l3.75-10.88,5.28,16.13L103.67,173l3.19,5.86h9.85a13.4,13.4,0,0,0,2.17-7.07c0-5.77-3.85-9.62-9.68-9.62-5.44,0-7.3,2.52-10.48,6.16-3.19-3.64-5-6.16-10.48-6.16-5.84,0-9.69,3.85-9.69,9.62a13.32,13.32,0,0,0,2.18,7.07Z" style="fill: rgb(22, 163, 74); transform-origin: 98.715px 173.12px;" id="el85ggc2vyim" class="animable"></path><g id="elevrulq6t9nv"><g style="opacity: 0.3; transform-origin: 98.715px 179.775px;" class="animable"><path d="M105.51,181.09l-1.63-3-5.41,12.31-5-15.35-2.07,6h-9c.37.43.77.85,1.19,1.27l15.13,15.06,15.12-15.06c.43-.42.83-.84,1.19-1.27Z" style="fill: rgb(255, 255, 255); transform-origin: 98.715px 186.215px;" id="elrodxypcdm3q" class="animable"></path><path d="M89.75,178.82l3.75-10.88,5.28,16.13L103.67,173l3.19,5.86h9.85a13.4,13.4,0,0,0,2.17-7.07c0-5.77-3.85-9.62-9.68-9.62-5.44,0-7.3,2.52-10.48,6.16-3.19-3.64-5-6.16-10.48-6.16-5.84,0-9.69,3.85-9.69,9.62a13.32,13.32,0,0,0,2.18,7.07Z" style="fill: rgb(255, 255, 255); transform-origin: 98.715px 173.12px;" id="elh956pnbnm7k" class="animable"></path></g></g></g><g id="freepik--Banana--inject-31" class="animable" style="transform-origin: 177.615px 99.1318px;"><path d="M153,102.41l2.25.8s18.39,5.58,28.85-4.42S197.63,77,201.45,77.34s5.65,17.4-11.75,31.6-33,6.33-36.94-3l-1.53-1.68Z" style="fill: rgb(22, 163, 74); transform-origin: 177.615px 97.0198px;" id="el6yb8llvdr1l" class="animable"></path><g id="el1o04rbuzke2"><path d="M201.45,77.34c-3.82-.3-6.87,11.45-17.32,21.45-10,9.55-27.23,4.89-28.73,4.46l-2.64,2.64c3.89,9.38,19.54,17.24,36.94,3S205.26,77.65,201.45,77.34Z" style="fill: rgb(255, 255, 255); opacity: 0.6; transform-origin: 178.378px 97.0113px;" class="animable"></path></g><path d="M189.71,106.51s6.78,3,3.65,6.55-7.63,6.26-6.79,7.71S203.66,113.59,192,106Z" style="fill: rgb(22, 163, 74); transform-origin: 191.332px 113.465px;" id="elwdzgixod6p9" class="animable"></path><g id="elhn0wjphad8"><path d="M189.71,106.51s6.78,3,3.65,6.55-7.63,6.26-6.79,7.71S203.66,113.59,192,106Z" style="fill: rgb(255, 255, 255); opacity: 0.3; transform-origin: 191.332px 113.465px;" class="animable"></path></g><path d="M182.22,95.66c-7.47-8.36-20.07-2.06-19.85-3.51s14.51-5,21.37,2.75-1.37,12.66-11.21,14.27-18.4-4.66-18.4-4.66l1.15-1.3s16,4.86,26.65-2.62a3.06,3.06,0,0,0,.86-4.13A7.21,7.21,0,0,0,182.22,95.66Z" style="fill: rgb(22, 163, 74); transform-origin: 170.199px 99.7515px;" id="elxpwn3cw3xni" class="animable"></path><g id="el6fowtj35e8m"><path d="M182.22,95.66c-7.47-8.36-20.07-2.06-19.85-3.51s14.51-5,21.37,2.75-1.37,12.66-11.21,14.27-18.4-4.66-18.4-4.66l1.15-1.3s16,4.86,26.65-2.62a3.06,3.06,0,0,0,.86-4.13A7.21,7.21,0,0,0,182.22,95.66Z" style="fill: rgb(255, 255, 255); opacity: 0.3; transform-origin: 170.199px 99.7515px;" class="animable"></path></g><path d="M177.13,115.77c-11.92,3.34-21.45-2.84-24.37-9.88l1.37-1.38s8.55,6.26,18.4,4.66c5.31-.87,10.15-2.69,12.41-5.41,2.1.16,6.05,1.07,7.05,5.48,1.13,5-10.57,10.29-15.48,10.08-.87,0-4.35-.86.37-3.48Z" style="fill: rgb(22, 163, 74); transform-origin: 172.413px 111.543px;" id="el1mjvceki34a" class="animable"></path><g id="elltkvga9icwp"><path d="M177.13,115.77l-.44.17c-4.43,2.54-1,3.34-.18,3.38,4.91.21,16.61-5,15.48-10.08-1-4.41-5-5.32-7.05-5.48C191.09,105.13,177.13,115.77,177.13,115.77Z" style="fill: rgb(255, 255, 255); opacity: 0.3; transform-origin: 183.268px 111.543px;" class="animable"></path></g></g><g id="freepik--Dumbbell--inject-31" class="animable" style="transform-origin: 322.527px 99.13px;"><path d="M345.63,113.22a14.09,14.09,0,1,0,0-28.18h-4.24a14.09,14.09,0,1,0,0,28.18Z" style="fill: rgb(22, 163, 74); transform-origin: 343.51px 99.13px;" id="elsq3gn1xe6am" class="animable"></path><g id="eliqj9cn92zf"><path d="M345.63,113.22a14.09,14.09,0,1,0,0-28.18h-4.24a14.09,14.09,0,1,0,0,28.18Z" style="fill: rgb(255, 255, 255); opacity: 0.5; transform-origin: 343.51px 99.13px;" class="animable"></path></g><g id="elf4alu6cwehc"><circle cx="341.39" cy="99.13" r="14.09" style="fill: rgb(22, 163, 74); transform-origin: 341.39px 99.13px; transform: rotate(-80.78deg);" class="animable"></circle></g><path d="M340,102.69a3.56,3.56,0,1,0,0-7.12H321.78a3.56,3.56,0,1,0,0,7.12Z" style="fill: rgb(38, 50, 56); transform-origin: 330.89px 99.13px;" id="elcqof04uv9iq" class="animable"></path><path d="M309.51,113.22a14.09,14.09,0,1,0,0-28.18h-4.25a14.09,14.09,0,1,0,0,28.18Z" style="fill: rgb(22, 163, 74); transform-origin: 307.385px 99.13px;" id="elllmirwktr2" class="animable"></path><g id="eltsnd7215d78"><path d="M309.51,113.22a14.09,14.09,0,1,0,0-28.18h-4.25a14.09,14.09,0,1,0,0,28.18Z" style="fill: rgb(255, 255, 255); opacity: 0.5; transform-origin: 307.385px 99.13px;" class="animable"></path></g><g id="elmsj9zc5jn2l"><circle cx="305.26" cy="99.13" r="14.09" style="fill: rgb(22, 163, 74); transform-origin: 305.26px 99.13px; transform: rotate(-45deg);" class="animable"></circle></g><g id="elgv0rayuzpyr"><path d="M313.94,100.33a9,9,0,0,0,0-2.4l-1.5-.44a7.4,7.4,0,0,0-.4-1.26L313,95a9,9,0,0,0-1.42-1.94l-1.47.52A8.31,8.31,0,0,0,309,92.8l.05-1.56a8.53,8.53,0,0,0-2.29-.74l-.88,1.28q-.33,0-.66,0t-.66,0l-.88-1.28a8.42,8.42,0,0,0-2.29.74l0,1.56a9.07,9.07,0,0,0-1.07.77l-1.47-.52A9,9,0,0,0,297.51,95l.95,1.24a6.63,6.63,0,0,0-.41,1.26l-1.49.44a8,8,0,0,0,0,2.4l1.49.45a7.13,7.13,0,0,0,.41,1.26l-.95,1.23a8.76,8.76,0,0,0,1.41,1.94l1.47-.52a7.24,7.24,0,0,0,1.07.77l0,1.57a8.42,8.42,0,0,0,2.29.74l.88-1.29c.21,0,.43,0,.66,0s.44,0,.66,0l.88,1.29a8.53,8.53,0,0,0,2.29-.74l-.05-1.57a6.75,6.75,0,0,0,1.07-.77l1.47.52a8.8,8.8,0,0,0,1.42-1.94L312,102a8,8,0,0,0,.4-1.26Z" style="fill: rgb(255, 255, 255); opacity: 0.3; transform-origin: 305.245px 99.14px;" class="animable"></path></g><path d="M304.87,102.69a3.56,3.56,0,1,0,0-7.12H302a3.56,3.56,0,0,0,0,7.12Z" style="fill: rgb(38, 50, 56); transform-origin: 303.435px 99.13px;" id="elacpq4o4l274" class="animable"></path><g id="elvkqqs7gkeck"><path d="M305.54,99.13A3.56,3.56,0,1,1,302,95.57,3.56,3.56,0,0,1,305.54,99.13Z" style="fill: rgb(255, 255, 255); opacity: 0.4; transform-origin: 301.98px 99.1299px;" class="animable"></path></g></g><g id="freepik--Drink--inject-31" class="animable" style="transform-origin: 396px 184.632px;"><path d="M401.73,164.85c5.1,1.37,13.68,1.74,14.81-5.06,1.86-11.2-16.59-5.77-22.1-6.21a1,1,0,0,0-.18,2.09c4.6.36,20.25-3.92,20.29,3.06,0,5.94-8.23,5.2-12.09,4.16-1.29-.35-2,1.61-.73,2Z" style="fill: rgb(38, 50, 56); transform-origin: 404.988px 159.151px;" id="elmpe5tahnaq" class="animable"></path><path d="M404,164.89l.25-2.85-22.6-2-.24,2.85a3.05,3.05,0,0,0-2.07,2.63l-4,46a3.07,3.07,0,0,0,2.79,3.33l20.12,1.76a3.08,3.08,0,0,0,3.32-2.79l4-46A3,3,0,0,0,404,164.89Z" style="fill: rgb(22, 163, 74); transform-origin: 390.456px 188.33px;" id="eliwkbctibf8n" class="animable"></path><g id="elguyz39njz9k"><path d="M404,164.89l.25-2.85-22.6-2-.24,2.85a3.05,3.05,0,0,0-2.07,2.63l-4,46a3.07,3.07,0,0,0,2.79,3.33l20.12,1.76a3.08,3.08,0,0,0,3.32-2.79l4-46A3,3,0,0,0,404,164.89Z" style="fill: rgb(255, 255, 255); opacity: 0.2; transform-origin: 390.456px 188.33px;" class="animable"></path></g><g id="elk5warhqmged"><rect x="380.03" y="155.41" width="26.33" height="6.52" rx="2.07" style="fill: rgb(22, 163, 74); transform-origin: 393.195px 158.67px; transform: rotate(5deg);" class="animable"></rect></g><g id="el81r8p39f8g"><rect x="380.03" y="155.41" width="26.33" height="6.52" rx="2.07" style="opacity: 0.3; transform-origin: 393.195px 158.67px; transform: rotate(5deg);" class="animable"></rect></g><g id="el2xhn4hqxbry"><path d="M395.15,173.88a24.52,24.52,0,0,0-13.71.13l-3.3,37.78a.27.27,0,0,0,.25.3l20.12,1.76a.28.28,0,0,0,.3-.25l3.42-39A18.35,18.35,0,0,1,395.15,173.88Z" style="fill: rgb(255, 255, 255); opacity: 0.9; transform-origin: 390.184px 193.408px;" class="animable"></path></g><path d="M395,183.43a6.35,6.35,0,1,1-5.77-6.88A6.36,6.36,0,0,1,395,183.43Z" style="fill: rgb(22, 163, 74); transform-origin: 388.674px 182.876px;" id="el8f18yzepa6g" class="animable"></path><g id="elpqxnugkk1kn"><path d="M395,183.43a6.35,6.35,0,1,1-5.77-6.88A6.36,6.36,0,0,1,395,183.43Z" style="fill: rgb(255, 255, 255); opacity: 0.4; transform-origin: 388.674px 182.876px;" class="animable"></path></g><g id="ela5860l4t2wv"><g style="opacity: 0.9; transform-origin: 388.665px 182.876px;" class="animable"><path d="M388,178.05a4.61,4.61,0,0,0-1.55.49.58.58,0,0,0-.17.88l2.09,2.48.28-3.23A.58.58,0,0,0,388,178.05Z" style="fill: rgb(255, 255, 255); transform-origin: 387.399px 179.973px;" id="eld7gjbi9td9a" class="animable"></path><path d="M387.75,182.4l-2.08-2.48a.57.57,0,0,0-.89,0,4.76,4.76,0,0,0-.75,1.45.57.57,0,0,0,.5.74Z" style="fill: rgb(255, 255, 255); transform-origin: 385.877px 181.053px;" id="elf3956sgwpj5" class="animable"></path><path d="M387.69,183.19l-3.23-.29a.58.58,0,0,0-.62.65,4.61,4.61,0,0,0,.49,1.55.57.57,0,0,0,.87.17Z" style="fill: rgb(255, 255, 255); transform-origin: 385.763px 184.151px;" id="elf411hulwl6m" class="animable"></path><path d="M389.42,178.74l-.28,3.23,2.48-2.09a.57.57,0,0,0,0-.89,4.76,4.76,0,0,0-1.45-.75A.57.57,0,0,0,389.42,178.74Z" style="fill: rgb(255, 255, 255); transform-origin: 390.487px 180.09px;" id="el2xv1cvy4uxm" class="animable"></path><path d="M389.58,183.35l2.08,2.48a.57.57,0,0,0,.89,0,4.82,4.82,0,0,0,.75-1.44.58.58,0,0,0-.5-.75Z" style="fill: rgb(255, 255, 255); transform-origin: 391.453px 184.697px;" id="elg0nfpv4udq" class="animable"></path><path d="M389.64,182.57l3.23.28a.57.57,0,0,0,.62-.64,4.66,4.66,0,0,0-.49-1.56.57.57,0,0,0-.87-.17Z" style="fill: rgb(255, 255, 255); transform-origin: 391.567px 181.6px;" id="el29fs4reqaj7" class="animable"></path><path d="M388.19,183.79l-2.48,2.08a.57.57,0,0,0,0,.89,4.76,4.76,0,0,0,1.45.75.57.57,0,0,0,.74-.5Z" style="fill: rgb(255, 255, 255); transform-origin: 386.843px 185.663px;" id="elya4noccjs0f" class="animable"></path><path d="M389,183.86l-.28,3.22a.57.57,0,0,0,.65.62,4.61,4.61,0,0,0,1.55-.49.57.57,0,0,0,.17-.87Z" style="fill: rgb(255, 255, 255); transform-origin: 389.97px 185.783px;" id="elasvtz9wcved" class="animable"></path></g></g><g id="elrsclqhqc9nh"><circle cx="392.34" cy="202.8" r="6.35" style="fill: rgb(22, 163, 74); transform-origin: 392.34px 202.8px; transform: rotate(-75.63deg);" class="animable"></circle></g><g id="elbm0el9iuz26"><circle cx="392.34" cy="202.8" r="6.35" style="fill: rgb(255, 255, 255); opacity: 0.4; transform-origin: 392.34px 202.8px; transform: rotate(-75.63deg);" class="animable"></circle></g><g id="ela9umsmdzdhu"><g style="opacity: 0.9; transform-origin: 392.34px 202.815px;" class="animable"><path d="M391.67,198a5.1,5.1,0,0,0-1.55.49.57.57,0,0,0-.17.88l2.08,2.48.28-3.22A.57.57,0,0,0,391.67,198Z" style="fill: rgb(255, 255, 255); transform-origin: 391.062px 199.923px;" id="elkguis1x3zwg" class="animable"></path><path d="M391.43,202.33l-2.08-2.48a.58.58,0,0,0-.9,0,4.94,4.94,0,0,0-.75,1.44.59.59,0,0,0,.5.75Z" style="fill: rgb(255, 255, 255); transform-origin: 389.553px 200.983px;" id="elblje1bg2nyo" class="animable"></path><path d="M391.36,203.11l-3.23-.28a.57.57,0,0,0-.62.64A5,5,0,0,0,388,205a.57.57,0,0,0,.88.17Z" style="fill: rgb(255, 255, 255); transform-origin: 389.433px 204.068px;" id="elo003tintiro" class="animable"></path><path d="M393.1,198.66l-.29,3.23,2.49-2.08a.57.57,0,0,0,0-.89,4.73,4.73,0,0,0-1.44-.76A.57.57,0,0,0,393.1,198.66Z" style="fill: rgb(255, 255, 255); transform-origin: 394.162px 200.008px;" id="ely8pqwjih5r" class="animable"></path><path d="M393.25,203.28l2.08,2.48a.58.58,0,0,0,.9,0,4.81,4.81,0,0,0,.75-1.44.57.57,0,0,0-.5-.74Z" style="fill: rgb(255, 255, 255); transform-origin: 395.128px 204.627px;" id="elbr01bjm7nbc" class="animable"></path><path d="M393.32,202.49l3.23.29a.58.58,0,0,0,.62-.65,5.1,5.1,0,0,0-.49-1.55.58.58,0,0,0-.88-.17Z" style="fill: rgb(255, 255, 255); transform-origin: 395.247px 201.529px;" id="elr7puyhw5tc" class="animable"></path><path d="M391.87,203.71l-2.49,2.09a.57.57,0,0,0,0,.89,4.94,4.94,0,0,0,1.44.75.57.57,0,0,0,.74-.5Z" style="fill: rgb(255, 255, 255); transform-origin: 390.518px 205.588px;" id="elq0wkxmy4ry" class="animable"></path><path d="M392.65,203.78l-.28,3.23a.57.57,0,0,0,.64.62,4.84,4.84,0,0,0,1.55-.49.57.57,0,0,0,.17-.88Z" style="fill: rgb(255, 255, 255); transform-origin: 393.618px 205.707px;" id="elj91c0pn6lu" class="animable"></path></g></g></g><g id="freepik--Device--inject-31" class="animable" style="transform-origin: 393.17px 290.47px;"><path d="M402.77,267.58l.35-3.95a2.63,2.63,0,0,0-2.4-2.85L388,259.66a2.64,2.64,0,0,0-2.86,2.4l-.34,3.94a8.53,8.53,0,0,1-3.67,6.4,10.33,10.33,0,0,0-4.62,7.74L374.92,298a10.34,10.34,0,0,0,3.2,8.42,8.5,8.5,0,0,1,2.51,6.94l-.35,3.95a2.63,2.63,0,0,0,2.4,2.85l12.75,1.12a2.64,2.64,0,0,0,2.86-2.4l.34-3.94a8.53,8.53,0,0,1,3.67-6.4,10.31,10.31,0,0,0,4.62-7.74l1.56-17.83a10.34,10.34,0,0,0-3.2-8.42A8.5,8.5,0,0,1,402.77,267.58Z" style="fill: rgb(22, 163, 74); transform-origin: 391.7px 290.47px;" id="elu30juorroem" class="animable"></path><g id="el1mviizptr5ah"><path d="M402.77,267.58l.35-3.95a2.63,2.63,0,0,0-2.4-2.85L388,259.66a2.64,2.64,0,0,0-2.86,2.4l-.34,3.94a8.53,8.53,0,0,1-3.67,6.4,10.33,10.33,0,0,0-4.62,7.74L374.92,298a10.34,10.34,0,0,0,3.2,8.42,8.5,8.5,0,0,1,2.51,6.94l-.35,3.95a2.63,2.63,0,0,0,2.4,2.85l12.75,1.12a2.64,2.64,0,0,0,2.86-2.4l.34-3.94a8.53,8.53,0,0,1,3.67-6.4,10.31,10.31,0,0,0,4.62-7.74l1.56-17.83a10.34,10.34,0,0,0-3.2-8.42A8.5,8.5,0,0,1,402.77,267.58Z" style="fill: rgb(255, 255, 255); opacity: 0.4; transform-origin: 391.7px 290.47px;" class="animable"></path></g><g id="elrptwdmnir2b"><rect x="380.27" y="275.78" width="22.86" height="29.35" rx="6.18" style="fill: rgb(38, 50, 56); transform-origin: 391.7px 290.455px; transform: rotate(5deg);" class="animable"></rect></g><g id="elu705bnbz25p"><rect x="408.18" y="283.38" width="3.01" height="6.14" rx="0.75" style="fill: rgb(22, 163, 74); transform-origin: 409.685px 286.45px; transform: rotate(5.14276deg);" class="animable"></rect></g><path d="M384.1,286s-1.43-3.75.35-4.1,1.63,3.57,1.63,3.57Z" style="fill: rgb(255, 255, 255); transform-origin: 384.82px 283.939px;" id="elrdcih255vu" class="animable"></path><path d="M384.48,286.53l1.75-.25s.4,1.33-.66,1.46S384.48,286.53,384.48,286.53Z" style="fill: rgb(255, 255, 255); transform-origin: 385.392px 287.014px;" id="elce4iknfj537" class="animable"></path><path d="M389.72,285.44s2.06-3.45.36-4.1-2.22,3.23-2.22,3.23Z" style="fill: rgb(255, 255, 255); transform-origin: 389.306px 283.353px;" id="el97v2v5eny6t" class="animable"></path><path d="M389.37,285.93l-1.68-.56s-.75,1.23.28,1.54S389.37,285.93,389.37,285.93Z" style="fill: rgb(255, 255, 255); transform-origin: 388.398px 286.164px;" id="eldnsvkpsvx5j" class="animable"></path><path d="M385.39,298.6c-1.23-.11-3.8-.46-2.23-4.31,0,0,.3,1.49,1,1.57,0,0-1.27-3.25,2.31-5.39,0,0-.66,2.28.59,3.41.67.6.17,1.78.17,1.78a4.24,4.24,0,0,0,.64-2.54S390.49,299.05,385.39,298.6Z" style="fill: rgb(255, 255, 255); transform-origin: 385.605px 294.547px;" id="elt2uczj08j8a" class="animable"></path><path d="M399.69,287l-7.19-.63a1.06,1.06,0,0,1-1-1.17h0a1.08,1.08,0,0,1,1.17-1l7.19.63a1.06,1.06,0,0,1,1,1.17h0A1.08,1.08,0,0,1,399.69,287Z" style="fill: rgb(255, 255, 255); transform-origin: 396.18px 285.6px;" id="elkwoyvobnd7e" class="animable"></path><path d="M396,297.58l-4.42-.39a1.06,1.06,0,0,1-1-1.17h0a1.08,1.08,0,0,1,1.17-1l4.42.39a1.08,1.08,0,0,1,1,1.17h0A1.09,1.09,0,0,1,396,297.58Z" style="fill: rgb(255, 255, 255); transform-origin: 393.874px 296.3px;" id="eli05jsnk2vq" class="animable"></path></g><g id="freepik--character-2--inject-31" class="animable" style="transform-origin: 288.825px 266.195px;"><path d="M317,226.25s8.39,13.26,15.16,15.95,22.57-8.59,22.57-8.59l6.26-1.74a2.54,2.54,0,0,0,1.58-1.84l.9-4.11a2.19,2.19,0,0,0-.36-1.74l-.72-1a2.19,2.19,0,0,0-3.36-.26l-5.75,5.92s-14.8,7-17.78,3.94-2.95-3.05-9.21-11.47Z" style="fill: rgb(255, 181, 115); transform-origin: 340.26px 231.962px;" id="eletcrpuph5ja" class="animable"></path><path d="M311.74,205.81c-2.83,1.69-6.47,9.85,5.53,23.57l10.46-8S320.58,200.5,311.74,205.81Z" style="fill: rgb(22, 163, 74); transform-origin: 318.325px 217.163px;" id="el9wi3naqfotm" class="animable"></path><g id="els5ncgj96q2"><path d="M324.66,223.74c-2.31-9.16-5.56-12.65-5.56-12.65L317,214l-3.79,5.34,1,6.16c.89,1.24,1.91,2.53,3.08,3.87Z" style="opacity: 0.1; transform-origin: 318.935px 220.23px;" class="animable"></path></g><path d="M280.81,316.5A66.92,66.92,0,0,1,278.15,329c-11.91,4.89-40.94,46.83-40.94,46.83l4.71,4.47S281.3,349.83,291.64,337c3-3.75,5.11-11.81,7.3-16.91A33.78,33.78,0,0,1,280.81,316.5Z" style="fill: rgb(255, 181, 115); transform-origin: 268.075px 348.4px;" id="eliv05xd2lls" class="animable"></path><path d="M243,379.05l-5.42-5a.67.67,0,0,0-.85-.06l-5.81,4a1.13,1.13,0,0,0-.3,1.58.9.9,0,0,0,.16.18c2.28,2,4.4,3.76,7.2,6.35,3.31,3.05,2.1,2.67,5.94,6.31,2.32,2.19,5.2-.08,4.33-1.13-4-4.76-4-7.36-4.31-10.6A2.74,2.74,0,0,0,243,379.05Z" style="fill: rgb(38, 50, 56); transform-origin: 239.414px 383.598px;" id="elunpd15dzw1p" class="animable"></path><g id="eltw9qx766wa"><path d="M280.81,316.5a42.3,42.3,0,0,1-.72,4.92,38.1,38.1,0,0,0,17.19,3c.56-1.56,1.1-3,1.66-4.33A33.78,33.78,0,0,1,280.81,316.5Z" style="opacity: 0.1; transform-origin: 289.515px 320.492px;" class="animable"></path></g><path d="M281.78,285.08c.16,9.91-1.61,23.51-2.28,31.92,3.38,1.66,11.66,5.17,20.21,4.47a220,220,0,0,0,10.49-29.85c3.71-13.44,3-32.61,3-32.61l-33.8-2.11C278.05,277.52,281.78,285.08,281.78,285.08Z" style="fill: rgb(38, 50, 56); transform-origin: 296.18px 289.231px;" id="el2zoy8ms15of" class="animable"></path><g id="el8gwcvleuhmg"><path d="M313.17,259l-33.8-2.11c-1.32,20.62,2.41,28.18,2.41,28.18.05,3.39-.12,7.21-.4,11.1,2.06,5.42,6.21,16.2,10.06,24.81a32.22,32.22,0,0,0,8.27.48,220,220,0,0,0,10.49-29.85C313.91,278.18,313.17,259,313.17,259Z" style="opacity: 0.5; transform-origin: 296.159px 289.216px;" class="animable"></path></g><path d="M318.05,331.26c-.58-4.12-4.72-19.08-4.72-19.08-8.28,4.42-14,5.84-17.14,6.24,1.5,3.52,4.45,10.69,5.83,13.78,0,0-1.29,14.69,16.31,72.21l7.07-1.12S320.57,349.15,318.05,331.26Z" style="fill: rgb(255, 181, 115); transform-origin: 310.795px 358.295px;" id="elupmqx8sbf88" class="animable"></path><path d="M324.74,401.82l-7.18,1.57a.67.67,0,0,0-.54.66l0,7.08a1.13,1.13,0,0,0,1.12,1.15l.24,0c3-.7,5.61-1.44,9.34-2.23,4.4-.95,3.4-.18,8.58-1.22,3.13-.63,2.93-4.3,1.58-4.19-6.21.54-8.36-.93-11.15-2.59A2.77,2.77,0,0,0,324.74,401.82Z" style="fill: rgb(38, 50, 56); transform-origin: 327.915px 407.005px;" id="el2j1tvv1e7xj" class="animable"></path><g id="elvbmuifpgced"><path d="M313.33,312.18c-8.28,4.42-14,5.84-17.14,6.24.41,1,.94,2.22,1.51,3.59a43.21,43.21,0,0,0,16.48-6.69C313.68,313.43,313.33,312.18,313.33,312.18Z" style="opacity: 0.1; transform-origin: 305.185px 317.095px;" class="animable"></path></g><path d="M314.36,313.27s-6.84-26.14-6.67-35c.1-5.23,4.11-20.53,4.11-20.53L280.31,254s-9.35,17.37,0,31.34c0,0,7.76,18.43,15,34.53A57.26,57.26,0,0,0,314.36,313.27Z" style="fill: rgb(38, 50, 56); transform-origin: 295.257px 286.935px;" id="elydza8jo6j68" class="animable"></path><path d="M297.22,181.84c.11,3.53-.67,8-3.72,10.12-1.46,1-3.24,1.55-4.44,2.92s-1.72,3.13-2.43,4.68c-.24.52.54,1,.79.46,1-2.15,1.66-4.31,3.7-5.67,1.81-1.2,3.61-1.75,4.88-3.64a15.47,15.47,0,0,0,2.13-8.87c0-.58-.93-.58-.91,0Z" style="fill: rgb(26, 46, 53); transform-origin: 292.373px 190.831px;" id="els4pyhzuyc1r" class="animable"></path><path d="M297.69,177.31s.8-7.34-9.8-3.31c-10.15,3.86-6.29,9.5-15.85,14.67s5.45,9.07,2,13.62,8.14,5,11.32-3.18,7.6-5.7,10.57-9.77c1.75-2.41,2.51-7.5,2.51-7.5Z" style="fill: rgb(26, 46, 53); transform-origin: 283.622px 189.16px;" id="eldz963h81kzw" class="animable"></path><path d="M303.59,188.67s-.76,3.1-3.69,2S302.19,190.35,303.59,188.67Z" style="fill: rgb(26, 46, 53); transform-origin: 301.306px 189.788px;" id="elywabm53vfrr" class="animable"></path><path d="M300.79,182.73a5.38,5.38,0,0,0-1.7-.11,1.74,1.74,0,0,0-.48.38.72.72,0,0,1-1.2-.25,7.91,7.91,0,0,1,.43-6.5s.55,1,.89,1.07c.51.12,1.89-.85,1.89-.85Z" style="fill: rgb(22, 163, 74); transform-origin: 298.849px 179.738px;" id="elb1yg9sn86nq" class="animable"></path><path d="M277.65,255.08s25.17,4,37.84,4.3a62,62,0,0,1,1.78-17.72c2.35-8.35,9-15.4.91-32.66-4.4-9.44-29.86-10.74-33.73-1.93C280.44,216.19,291.17,221.34,277.65,255.08Z" style="fill: rgb(22, 163, 74); transform-origin: 299.862px 230.259px;" id="el7ttp939dejf" class="animable"></path><path d="M312.24,198.51l-6.81-7.85a12.37,12.37,0,0,1-5,10.5s.69,4.93,11.22,13.86c6.55-4.77,1.9-10.58,1.9-10.58S309.72,202,312.24,198.51Z" style="fill: rgb(255, 181, 115); transform-origin: 307.79px 202.84px;" id="eliol650qio0g" class="animable"></path><g id="elihlg5oit9rr"><path d="M311.7,202.29a3.6,3.6,0,0,1,.54-3.78l-6.81-7.85a12.53,12.53,0,0,1-.2,2.87A13.92,13.92,0,0,0,311.7,202.29Z" style="opacity: 0.1; transform-origin: 308.735px 196.475px;" class="animable"></path></g><path d="M303.36,179.34c-.5,7.71-.87,11,2.5,15.37,5.06,6.64,14.64,5.56,17.44-1.84,2.51-6.66,2.91-18.19-4.21-22.14a10.55,10.55,0,0,0-15.73,8.61Z" style="fill: rgb(255, 181, 115); transform-origin: 313.995px 184.237px;" id="elv1xp4q7oujf" class="animable"></path><path d="M315.3,182.88c-.07.63.2,1.18.6,1.23s.8-.42.89-1-.2-1.17-.6-1.22S315.41,182.3,315.3,182.88Z" style="fill: rgb(38, 50, 56); transform-origin: 316.048px 183px;" id="el0u48fgje2r2k" class="animable"></path><path d="M322.34,183.79c-.08.63.19,1.17.59,1.23s.8-.42.89-1-.2-1.17-.6-1.22S322.42,183.17,322.34,183.79Z" style="fill: rgb(38, 50, 56); transform-origin: 323.081px 183.911px;" id="el6p0zwr44tuq" class="animable"></path><path d="M323,182.77l1.55-.24S323.67,183.6,323,182.77Z" style="fill: rgb(38, 50, 56); transform-origin: 323.775px 182.808px;" id="elbnxgpthk5yt" class="animable"></path><path d="M320,184.64a16.8,16.8,0,0,0,1.73,4.26,2.8,2.8,0,0,1-2.28.14Z" style="fill: rgb(237, 137, 62); transform-origin: 320.59px 186.929px;" id="elqbd152j8i3" class="animable"></path><path d="M315.77,191a5.66,5.66,0,0,0,.91.19.2.2,0,0,0,.21-.15h0a.19.19,0,0,0-.17-.2,5,5,0,0,1-3.77-2.44.19.19,0,0,0-.34.16A5.15,5.15,0,0,0,315.77,191Z" style="fill: rgb(38, 50, 56); transform-origin: 314.746px 189.753px;" id="elwgasqyq1m9o" class="animable"></path><path d="M312.65,181.11a.36.36,0,0,0,.41-.14,4.38,4.38,0,0,1,3.17-1.48.37.37,0,1,0,0-.73h0a5,5,0,0,0-3.77,1.8.36.36,0,0,0,.1.5h0A.14.14,0,0,0,312.65,181.11Z" style="fill: rgb(38, 50, 56); transform-origin: 314.53px 179.941px;" id="elqz7t15ge72f" class="animable"></path><path d="M324.86,180.81a.37.37,0,0,0,.38-.61,3.62,3.62,0,0,0-3.19-1.19.36.36,0,0,0-.3.4v0a.36.36,0,0,0,.42.3h0a3,3,0,0,1,2.49,1A.4.4,0,0,0,324.86,180.81Z" style="fill: rgb(38, 50, 56); transform-origin: 323.546px 179.903px;" id="elg8b1j42j6wv" class="animable"></path><path d="M316,181.92l1.54-.24S316.64,182.71,316,181.92Z" style="fill: rgb(38, 50, 56); transform-origin: 316.77px 181.949px;" id="elvnnmwjmyorh" class="animable"></path><path d="M305.23,185a9.64,9.64,0,0,0,2.56-6.26c.1-3.88,6.19-8.06,14-5.84,0,0,2.24-7-3.3-4.07,0,0-8.84-6-16.43,2.89-5.28,6.21-2.42,12.93-.19,16.45a1.45,1.45,0,0,0,2.63-.4Z" style="fill: rgb(38, 50, 56); transform-origin: 310.651px 177.85px;" id="elabjo2k0gz" class="animable"></path><path d="M300.54,185a5.5,5.5,0,0,0,2.39,3.48c1.64,1,3-.29,3.05-2.14,0-1.67-.84-4.22-2.71-4.54a2.48,2.48,0,0,0-2.73,3.2Z" style="fill: rgb(255, 181, 115); transform-origin: 303.202px 185.301px;" id="eljpe9kmpnsre" class="animable"></path><path d="M321.09,172.74s2.94-1.26,3.8,1.76S323.28,172.86,321.09,172.74Z" style="fill: rgb(26, 46, 53); transform-origin: 323.078px 173.998px;" id="elzkdzfb2l6n" class="animable"></path><path d="M317.33,172.19s-3.18.33-2.46,3.38S315.47,173.35,317.33,172.19Z" style="fill: rgb(26, 46, 53); transform-origin: 316.047px 174.349px;" id="elvhek9laod9m" class="animable"></path><path d="M302.9,184.87a1.59,1.59,0,0,1,1.26,1.88,2.94,2.94,0,0,0,1.09,2.76,1.09,1.09,0,0,1-.83.51S300.06,185.71,302.9,184.87Z" style="fill: rgb(22, 163, 74); transform-origin: 303.595px 187.445px;" id="elntwtxxi1f4g" class="animable"></path><g id="el5ibacebgy7q"><path d="M302.9,184.87a1.59,1.59,0,0,1,1.26,1.88,2.94,2.94,0,0,0,1.09,2.76,1.09,1.09,0,0,1-.83.51S300.06,185.71,302.9,184.87Z" style="fill: rgb(255, 255, 255); opacity: 0.5; transform-origin: 303.595px 187.445px;" class="animable"></path></g><g id="eleq1yz5jmap"><path d="M295.47,214.09l-3.11-1.65-8.73,3.15-.28.73c.2,5.21.86,11.88-.38,21.08C294.59,222.94,295.47,214.09,295.47,214.09Z" style="opacity: 0.1; transform-origin: 289.22px 224.92px;" class="animable"></path></g><path d="M288.68,221.46s-6.09,14.45-12.32,18.23S252.69,235,252.69,235l-6.46-.68a2.54,2.54,0,0,1-1.87-1.55l-1.56-3.92a2.18,2.18,0,0,1,.06-1.77l.55-1.11a2.19,2.19,0,0,1,3.27-.81l6.65,4.88s15.76,4.49,18.19.95,2.4-3.49,7.18-12.83Z" style="fill: rgb(255, 181, 115); transform-origin: 265.66px 229.411px;" id="el1zw2xpwdu1u" class="animable"></path><path d="M293.3,203.35c2.83,1.7,6.46,9.86-5.54,23.57l-10.46-8S284.46,198,293.3,203.35Z" style="fill: rgb(22, 163, 74); transform-origin: 286.707px 214.697px;" id="elblpwfl87si4" class="animable"></path><path d="M247.16,229.2l-1.21-.1c4.75-57.65-3.39-59.71-13.69-62.32-5.29-1.34-11.28-2.85-16.16-12-4.54-8.48-1.12-17.69,9.13-24.63,11.94-8.07,30.7-11.66,49-9.35a87.72,87.72,0,0,1,57,31.37c13.76,16.38,18.06,30.35,21.52,41.57l.94,3c6,19.15,5.39,29.52,5.36,29.95l-1.21-.08c0-.1.64-10.6-5.31-29.51l-.94-3c-3.43-11.12-7.69-25-21.29-41.15-31.86-37.94-81.94-37-104.38-21.79-9.83,6.65-13,15.05-8.74,23.05,4.63,8.66,10.1,10.05,15.39,11.39s10.25,2.6,13.2,11C248.92,185.74,249.37,202.43,247.16,229.2Z" style="fill: rgb(22, 163, 74); transform-origin: 286.606px 174.655px;" id="elzwttai1p9m" class="animable"></path><g id="elwx9ylx2mqim"><g style="opacity: 0.3; transform-origin: 286.606px 174.655px;" class="animable"><path d="M247.16,229.2l-1.21-.1c4.75-57.65-3.39-59.71-13.69-62.32-5.29-1.34-11.28-2.85-16.16-12-4.54-8.48-1.12-17.69,9.13-24.63,11.94-8.07,30.7-11.66,49-9.35a87.72,87.72,0,0,1,57,31.37c13.76,16.38,18.06,30.35,21.52,41.57l.94,3c6,19.15,5.39,29.52,5.36,29.95l-1.21-.08c0-.1.64-10.6-5.31-29.51l-.94-3c-3.43-11.12-7.69-25-21.29-41.15-31.86-37.94-81.94-37-104.38-21.79-9.83,6.65-13,15.05-8.74,23.05,4.63,8.66,10.1,10.05,15.39,11.39s10.25,2.6,13.2,11C248.92,185.74,249.37,202.43,247.16,229.2Z" style="fill: rgb(255, 255, 255); transform-origin: 286.606px 174.655px;" id="el2b5yywyqcsh" class="animable"></path></g></g><rect x="244.54" y="222.06" width="4.04" height="14.17" style="fill: rgb(22, 163, 74); transform-origin: 246.56px 229.145px;" id="elq6t16du1y0g" class="animable"></rect><g id="elcwdzzz9ejfq"><rect x="244.54" y="222.06" width="4.04" height="2.42" style="opacity: 0.1; transform-origin: 246.56px 223.27px;" class="animable"></rect></g><g id="ell18v6g32e4j"><rect x="244.54" y="234.61" width="4.04" height="1.62" style="opacity: 0.1; transform-origin: 246.56px 235.42px;" class="animable"></rect></g><path d="M248.59,223.18h-4.07a1.12,1.12,0,0,1-1.12-1.12h0a1.12,1.12,0,0,1,1.12-1.11h4.07a1.12,1.12,0,0,1,1.12,1.11h0A1.12,1.12,0,0,1,248.59,223.18Z" style="fill: rgb(22, 163, 74); transform-origin: 246.555px 222.065px;" id="elrzlk8r4h4wc" class="animable"></path><path d="M248.59,237.81h-4.07a1.12,1.12,0,0,1-1.12-1.11h0a1.12,1.12,0,0,1,1.12-1.12h4.07a1.12,1.12,0,0,1,1.12,1.12h0A1.12,1.12,0,0,1,248.59,237.81Z" style="fill: rgb(22, 163, 74); transform-origin: 246.555px 236.695px;" id="el8bkyl97xoch" class="animable"></path><rect x="356.41" y="219.61" width="4.04" height="14.17" style="fill: rgb(22, 163, 74); transform-origin: 358.43px 226.695px;" id="elf2q7u7slvr" class="animable"></rect><g id="elk6415if6k1r"><rect x="356.41" y="219.61" width="4.04" height="2.42" style="opacity: 0.1; transform-origin: 358.43px 220.82px;" class="animable"></rect></g><g id="eltqi714jfbxo"><rect x="356.41" y="232.15" width="4.04" height="1.62" style="opacity: 0.1; transform-origin: 358.43px 232.96px;" class="animable"></rect></g><path d="M360.47,220.73H356.4a1.12,1.12,0,0,1-1.12-1.12h0a1.12,1.12,0,0,1,1.12-1.12h4.07a1.12,1.12,0,0,1,1.12,1.12h0A1.12,1.12,0,0,1,360.47,220.73Z" style="fill: rgb(22, 163, 74); transform-origin: 358.435px 219.61px;" id="elmg4n7ulk04h" class="animable"></path><path d="M360.47,235.36H356.4a1.12,1.12,0,0,1-1.12-1.12h0a1.12,1.12,0,0,1,1.12-1.12h4.07a1.12,1.12,0,0,1,1.12,1.12h0A1.12,1.12,0,0,1,360.47,235.36Z" style="fill: rgb(22, 163, 74); transform-origin: 358.435px 234.24px;" id="elgpikwchr5pa" class="animable"></path></g><g id="freepik--character-1--inject-31" class="animable" style="transform-origin: 201.003px 283.213px;"><path d="M177.82,212s-13.51,6.05-20.12,3.56-13.56-22.61-13.56-22.61l-4.29-5.67a2.19,2.19,0,0,1,0-2.65l3.55-4.62a2.86,2.86,0,0,1,2.11-1.09h.23a2.79,2.79,0,0,1,2.91,2.85l-.15,7s10.65,17.07,14.81,16.8,10.94-3.11,10.94-3.11Z" style="fill: rgb(255, 195, 189); transform-origin: 158.612px 197.539px;" id="elrong9p5ae1" class="animable"></path><path d="M191.06,201.55c.48,3-1,10.82-18.47,13.63l-2.69-11.86S189.35,190.84,191.06,201.55Z" style="fill: rgb(38, 50, 56); transform-origin: 180.516px 206.195px;" id="el9k1phqvzwq" class="animable"></path><path d="M149.22,180.57c1.76,2.24,4.51,3,6.13,1.74s1.5-4.13-.27-6.37-4.5-3-6.12-1.74S147.45,178.33,149.22,180.57Z" style="fill: rgb(22, 163, 74); transform-origin: 152.153px 178.255px;" id="els1zvla89tii" class="animable"></path><g id="elqlkurk93tkg"><path d="M149.22,180.57a5.28,5.28,0,0,1-1-5.4c1.38-.73,3.67.25,5.32,2.34,1.39,1.76,1.89,3.78,1.4,5.07C153.27,183.44,150.84,182.62,149.22,180.57Z" style="opacity: 0.2; transform-origin: 151.499px 178.924px;" class="animable"></path></g><path d="M137.83,189.55c.76,1,4.41-.65,8.15-3.61s6.17-6.13,5.41-7.09-4.41.66-8.15,3.61S137.07,188.59,137.83,189.55Z" style="fill: rgb(22, 163, 74); transform-origin: 144.61px 184.208px;" id="elwknltrlkcmd" class="animable"></path><g id="el5y8k8uf0rsn"><path d="M142.48,188.34c-2.3,1.33-4.14,1.86-4.65,1.21s.47-2.38,2.36-4.35a6.58,6.58,0,0,1,1.22,1.2A7.17,7.17,0,0,1,142.48,188.34Z" style="opacity: 0.2; transform-origin: 140.088px 187.514px;" class="animable"></path></g><path d="M134,192.56c1.76,2.24,4.5,3,6.12,1.74s1.51-4.12-.26-6.36-4.51-3-6.13-1.74S132.24,190.33,134,192.56Z" style="fill: rgb(22, 163, 74); transform-origin: 136.929px 190.25px;" id="ellbicd006ne9" class="animable"></path><g id="eldi6n1jjwio"><path d="M187.64,209.31a22.54,22.54,0,0,1-8.41,4.35c.16-12,6-12.13,6-12.13l1.11.63Z" style="opacity: 0.6; transform-origin: 183.435px 207.595px;" class="animable"></path></g><path d="M204.05,302.26l-6.79,21.18a57.78,57.78,0,0,1,0,17.95C195.72,351.46,187,404.47,187,404.47l-6.55.78s1-67.94,2.34-82.64,3-25.2,3-25.2Z" style="fill: rgb(255, 195, 189); transform-origin: 192.25px 351.33px;" id="el7tqmkrsbzpv" class="animable"></path><g id="el4gmo1x15nob"><path d="M185.78,297.41l18.27,4.85-4.37,13.65-15.92-2.76C184.83,303.61,185.78,297.41,185.78,297.41Z" style="opacity: 0.1; transform-origin: 193.905px 306.66px;" class="animable"></path></g><path d="M217.15,303.07s7.49,31.73,35,100.55l6.27-1.57s-12.3-71.5-19.82-79.42l-3.8-24.09Z" style="fill: rgb(255, 195, 189); transform-origin: 237.785px 351.08px;" id="elsfaok3zm0bs" class="animable"></path><g id="elrj158iwl75"><path d="M234.77,298.54,237,312.38l-16.43,3c-2.47-8.32-3.38-12.28-3.38-12.28Z" style="opacity: 0.1; transform-origin: 227.095px 306.96px;" class="animable"></path></g><path d="M216,279.66s-5.3,4.89-6.67,8.85-8,25.31-8,25.31l-18-3.23s1.86-20,3.89-34.28,3.6-22.66,3.35-23.88l34-2.87S231.38,274.45,216,279.66Z" style="fill: rgb(22, 163, 74); transform-origin: 204.701px 281.69px;" id="elfa45sr49yrp" class="animable"></path><g id="el2vk44cpw7m8"><path d="M210.28,265.59l5.63,14.13c-.6.57-5.32,5.09-6.6,8.79-.36,1-1.05,3.17-1.89,5.81-2.54-14.32-1.15-30.06-1.15-30.06Z" style="opacity: 0.1; transform-origin: 210.9px 279.29px;" class="animable"></path></g><path d="M205.85,252.54s-3.29,11.4,5.82,35.65c2.51,6.69,6.55,24.58,6.55,24.58l19.46-3.88-4.21-23.72s.86-23.52-5.77-34.84Z" style="fill: rgb(22, 163, 74); transform-origin: 221.476px 281.55px;" id="elc9n7egth5uw" class="animable"></path><path d="M180.53,403.74l6.81-.12a.62.62,0,0,1,.62.49l2.46,6.52a1.06,1.06,0,0,1-.79,1.26l-.22,0c-2.84-.05-5.35-.2-8.88-.2-4.16,0-3.1.5-8,.57-2.95,0-3.49-3.31-2.24-3.47,5.72-.72,6.31-2.45,8.52-4.5A2.58,2.58,0,0,1,180.53,403.74Z" style="fill: rgb(38, 50, 56); transform-origin: 180.052px 407.94px;" id="elfk5k1232unm" class="animable"></path><path d="M251.66,402.17l6.64-1.54a.61.61,0,0,1,.7.35l3.77,5.86a1.05,1.05,0,0,1-.51,1.39.9.9,0,0,1-.21.08c-2.78.54-5.28.91-8.72,1.66-4.07.87-2.93,1.13-7.7,2.22-2.87.66-4.1-2.51-2.91-2.93,5.44-1.9,5.66-3.71,7.39-6.17A2.52,2.52,0,0,1,251.66,402.17Z" style="fill: rgb(38, 50, 56); transform-origin: 252.567px 406.447px;" id="elsfp9riygnx" class="animable"></path><path d="M187.11,162.78s-4.62-.38-2.15,6.42l3-2.83,2-3.78Z" style="fill: rgb(38, 50, 56); transform-origin: 187.097px 165.895px;" id="el42nwbrhm7zj" class="animable"></path><g id="elo1sf8wocm8j"><path d="M187.11,162.78s-4.62-.38-2.15,6.42l3-2.83,2-3.78Z" style="opacity: 0.6; transform-origin: 187.097px 165.895px;" class="animable"></path></g><path d="M228.91,251.6s-7.73.69-39.08,2.52c0,0-1.75-8.08-4-21.92-2.53-15.77-5.42-30.29-1.69-34.21,4.24-4.45,24.41-3.83,33.68-3.8a5.79,5.79,0,0,1,5.76,5.23Z" style="fill: rgb(38, 50, 56); transform-origin: 205.633px 224.132px;" id="el60fpw76uys" class="animable"></path><path d="M210.83,194.14c-.05,2.13-1.93,6.61-12.42,14.77,0,0-8-7.73-7.21-13.64C196.81,194.27,204.48,194.13,210.83,194.14Z" style="fill: rgb(22, 163, 74); transform-origin: 200.988px 201.525px;" id="elw66zfzeywxk" class="animable"></path><path d="M198.37,206.29s-6.13-8.16-4.46-11.42a128.22,128.22,0,0,1,13.82-.72C207.72,195.69,206.72,199.73,198.37,206.29Z" style="fill: rgb(255, 195, 189); transform-origin: 200.676px 200.22px;" id="elpvhkh77glg" class="animable"></path><path d="M198.19,203.94l-4-7c3-2.18,2.31-4.16.7-7.14l7.07-10c.29,4.95,1.15,12.11,5.27,14.42a4.43,4.43,0,0,1-.43,2.34Z" style="fill: rgb(255, 195, 189); transform-origin: 200.719px 191.87px;" id="el7uplbpnwh8t" class="animable"></path><g id="el5wbqamuiez4"><path d="M196,192.27a16.43,16.43,0,0,0-1.13-2.43l4.44-6.31c.92.31,2.46-.05,3,.47,0,.32.09.64.15,1C202.08,187.4,199,191,196,192.27Z" style="opacity: 0.2; isolation: isolate; transform-origin: 198.665px 187.9px;" class="animable"></path></g><path d="M205.11,171.43c.29,7.56.57,10.75-2.84,15-5.13,6.37-14.48,5.06-17-2.25-2.28-6.6-2.37-17.89,4.7-21.57a10.32,10.32,0,0,1,14,4.25A10.19,10.19,0,0,1,205.11,171.43Z" style="fill: rgb(255, 195, 189); transform-origin: 194.58px 175.951px;" id="el8jotdvnsw37" class="animable"></path><path d="M193.33,174.59c.06.61-.22,1.14-.61,1.18s-.78-.43-.84-1,.22-1.14.61-1.18S193.24,174,193.33,174.59Z" style="fill: rgb(26, 46, 53); transform-origin: 192.605px 174.68px;" id="el43zxxtxpihb" class="animable"></path><path d="M186.42,175.29c.06.62-.22,1.14-.61,1.18s-.78-.43-.84-1,.22-1.14.61-1.17S186.36,174.68,186.42,175.29Z" style="fill: rgb(26, 46, 53); transform-origin: 185.695px 175.385px;" id="elrjnrpq640k7" class="animable"></path><path d="M188.67,176.18a16.52,16.52,0,0,1-1.81,4.13,2.72,2.72,0,0,0,2.23.19Z" style="fill: rgb(255, 137, 53); transform-origin: 187.975px 178.417px;" id="el8duzf16jmoj" class="animable"></path><path d="M192.66,182.56a5.29,5.29,0,0,1-.9.16.19.19,0,0,1-.2-.16h0a.2.2,0,0,1,.17-.2,4.85,4.85,0,0,0,3.76-2.29.19.19,0,0,1,.25-.07.18.18,0,0,1,.08.24A5.07,5.07,0,0,1,192.66,182.56Z" style="fill: rgb(26, 46, 53); transform-origin: 193.699px 181.35px;" id="elj44wrno3wta" class="animable"></path><path d="M196,172.92a.37.37,0,0,1-.4-.15,4.23,4.23,0,0,0-3-1.53.36.36,0,0,1-.36-.37.37.37,0,0,1,.37-.35h0a4.9,4.9,0,0,1,3.65,1.87.37.37,0,0,1-.11.49h0A.21.21,0,0,1,196,172.92Z" style="fill: rgb(26, 46, 53); transform-origin: 194.275px 171.726px;" id="elgh9ljvifxy" class="animable"></path><path d="M184,172.31a.37.37,0,0,1-.35-.1.36.36,0,0,1,0-.51,3.54,3.54,0,0,1,3.15-1.09.35.35,0,0,1,.28.4v0a.36.36,0,0,1-.42.28h0a2.9,2.9,0,0,0-2.46.89A.45.45,0,0,1,184,172.31Z" style="fill: rgb(26, 46, 53); transform-origin: 185.314px 171.443px;" id="elzcbs05ghbqr" class="animable"></path><path d="M202.88,178.08l-2.45-.46s1.61-5.61.46-7.05-3.79-2.59-4.65-5.27-14,2.59-11.87-8.45c0,0,1,3,2.49,4.09,0,0-2.19-7.57,6.15-6.73s13.59,9.56,13.59,9.56,10.78,7.07-.38,17.42a1.65,1.65,0,0,1-2.65-.55Z" style="fill: rgb(38, 50, 56); transform-origin: 197.709px 167.893px;" id="ely011p4d3n9l" class="animable"></path><path d="M207.73,177a5.39,5.39,0,0,1-2.43,3.34c-1.64,1-3-.36-2.93-2.18,0-1.63.93-4.11,2.77-4.37a2.45,2.45,0,0,1,2.71,2.15A2.42,2.42,0,0,1,207.73,177Z" style="fill: rgb(255, 195, 189); transform-origin: 205.116px 177.227px;" id="el2zprvjrgomq" class="animable"></path><path d="M206.21,164.34s2.95-4.41,5.55-.86S208.27,163.07,206.21,164.34Z" style="fill: rgb(38, 50, 56); transform-origin: 209.303px 163.548px;" id="elxzsnerhmo0j" class="animable"></path><path d="M204.83,176.48a1.88,1.88,0,0,0-1.5,2.22s.47,1.53-1.29,3.28a1.3,1.3,0,0,0,1,.6S208.2,177.47,204.83,176.48Z" style="fill: rgb(22, 163, 74); transform-origin: 204.006px 179.53px;" id="el57a1kfff8lq" class="animable"></path><g id="elm95hxcgm9v8"><path d="M204.83,176.48a1.88,1.88,0,0,0-1.5,2.22s.47,1.53-1.29,3.28a1.3,1.3,0,0,0,1,.6S208.2,177.47,204.83,176.48Z" style="fill: rgb(255, 255, 255); opacity: 0.8; transform-origin: 204.006px 179.53px;" class="animable"></path></g><g id="elw7i9k5aawfe"><path d="M224.11,204.78l1.17,12.53a21.71,21.71,0,0,1-8-12.63l2.91-.74Z" style="opacity: 0.6; transform-origin: 221.28px 210.625px;" class="animable"></path></g><path d="M226.21,207.78s15.6,1.6,21.9-2.06,9.25-24.32,9.25-24.32l3.14-7.87a3,3,0,0,0-1.21-3.66l-2.87-1.76a3,3,0,0,0-2-.41l-1.07.16a3,3,0,0,0-2.54,3.22l.77,9s-4.53,16.74-8.8,17.17-4.22.43-14.71.15Z" style="fill: rgb(255, 195, 189); transform-origin: 243.461px 187.898px;" id="elx980j61u3o8" class="animable"></path><path d="M214,200.54c-.12,3.4,2.37,9.56,20.57,8.6l.2-13.15S214.35,189.1,214,200.54Z" style="fill: rgb(38, 50, 56); transform-origin: 224.383px 201.587px;" id="elxdiw2x2ut8l" class="animable"></path><path d="M251.24,170c-1.23,2.57-3.73,3.94-5.59,3.05s-2.37-3.7-1.14-6.27,3.73-3.93,5.59-3S252.47,167.43,251.24,170Z" style="fill: rgb(22, 163, 74); transform-origin: 247.875px 168.404px;" id="elb11ktyjdpn" class="animable"></path><g id="el44lxdht9omg"><path d="M251.24,170a5.28,5.28,0,0,0-.19-5.49c-1.51-.41-3.53,1.05-4.68,3.45-1,2-1,4.11-.25,5.26C247.92,173.7,250.11,172.36,251.24,170Z" style="opacity: 0.2; transform-origin: 248.752px 168.879px;" class="animable"></path></g><path d="M264.32,176.27c-.52,1.1-4.44.33-8.74-1.73s-7.37-4.63-6.84-5.73,4.45-.33,8.75,1.73S264.85,175.16,264.32,176.27Z" style="fill: rgb(22, 163, 74); transform-origin: 256.53px 172.54px;" id="elkv462zolxhk" class="animable"></path><g id="elqp9wyqjjvv"><path d="M259.52,176.11c2.54.79,4.45.91,4.8.16s-1-2.22-3.25-3.73a6.59,6.59,0,0,0-.93,1.44A7,7,0,0,0,259.52,176.11Z" style="opacity: 0.2; transform-origin: 261.947px 174.656px;" class="animable"></path></g><path d="M268.72,178.37c-1.23,2.57-3.74,3.93-5.6,3s-2.37-3.69-1.14-6.26,3.74-3.94,5.6-3.05S270,175.8,268.72,178.37Z" style="fill: rgb(22, 163, 74); transform-origin: 265.361px 176.726px;" id="elbcd0lwdm" class="animable"></path></g><defs>     <filter id="active" height="200%">         <feMorphology in="SourceAlpha" result="DILATED" operator="dilate" radius="2"></feMorphology>                <feFlood flood-color="#32DFEC" flood-opacity="1" result="PINK"></feFlood>        <feComposite in="PINK" in2="DILATED" operator="in" result="OUTLINE"></feComposite>        <feMerge>            <feMergeNode in="OUTLINE"></feMergeNode>            <feMergeNode in="SourceGraphic"></feMergeNode>        </feMerge>    </filter>    <filter id="hover" height="200%">        <feMorphology in="SourceAlpha" result="DILATED" operator="dilate" radius="2"></feMorphology>                <feFlood flood-color="#ff0000" flood-opacity="0.5" result="PINK"></feFlood>        <feComposite in="PINK" in2="DILATED" operator="in" result="OUTLINE"></feComposite>        <feMerge>            <feMergeNode in="OUTLINE"></feMergeNode>            <feMergeNode in="SourceGraphic"></feMergeNode>        </feMerge>            <feColorMatrix type="matrix" values="0   0   0   0   0                0   1   0   0   0                0   0   0   0   0                0   0   0   1   0 "></feColorMatrix>    </filter></defs></svg>